<?xml version="1.0" encoding="utf-8"?>
<!-- Generator: Adobe Illustrator 25.0.1, SVG Export Plug-In . SVG Version: 6.00 Build 0)  -->
<svg version="1.1" xmlns="http://www.w3.org/2000/svg" xmlns:xlink="http://www.w3.org/1999/xlink" x="0px" y="0px"
	 viewBox="0 0 72.7 96.7" style="enable-background:new 0 0 72.7 96.7;" xml:space="preserve">
<style type="text/css">
	.st0{display:none;}
	.st1{display:inline;fill:#FFFFFF;}
	.st2{display:inline;}
	.st3{fill:#005E7E;stroke:#005E7E;stroke-miterlimit:10;}
	.st4{fill:none;stroke:#005E7E;stroke-miterlimit:10;}
	.st5{fill:none;stroke:#FFFFFF;stroke-miterlimit:10;}
</style>
<g id="Layer_2" class="st0">
	<rect class="st1" width="72.7" height="96.7"/>
</g>
<g id="Layer_1">
	<g>
		<path class="st3" d="M64.1,64.1c0.2,0.5,0.4,2.1,0.4,3.8c0,8.5-12.5,10.3-25.1,11.9V89c8.6-1.1,17.2-2.6,22.1-7
			C68.8,75.6,65.3,66.3,64.1,64.1L64.1,64.1z"/>
		<path class="st3" d="M64.1,64.2c-0.6-1.1-1.5-2.1-2.6-3.1c-4.9-4.4-13.6-5.8-22.1-7v0c-10.4-1.4-20.7-2.8-24-8.1
			c-0.6,1.1-1,2.3-1,3.7c0,1.6,0.2,3.1,0.4,3.7c0.6,1,1.4,2,2.5,2.9c4.9,4.4,13.6,5.8,22.1,7v0c10.6,1.4,21.1,2.9,24.2,8.4
			c0.6-1.1,1-2.3,1-3.7C64.6,66.2,64.4,64.7,64.1,64.2z"/>
		<path class="st4" d="M64.1,38.5c-0.6-1-1.4-2-2.5-2.9c-4.9-4.4-13.6-5.8-22.1-7v0c-10.6-1.4-21.1-2.9-24.2-8.4
			c-0.6,1.1-1,2.3-1,3.7c0,1.7,0.2,3.2,0.4,3.8c0.6,1.1,1.5,2.1,2.6,3.1c4.9,4.4,13.6,5.8,22.1,7v0c10.4,1.4,20.7,2.8,24,8.1
			c0.6-1.1,1-2.3,1-3.7C64.5,40.5,64.3,39.1,64.1,38.5z"/>
		<path class="st4" d="M14.7,27.7C14.7,27.7,14.7,27.7,14.7,27.7C14.7,27.7,14.7,27.6,14.7,27.7C14.7,27.6,14.7,27.7,14.7,27.7
			L14.7,27.7z"/>
		<path class="st4" d="M14.8,27.8C14.8,27.8,14.8,27.8,14.8,27.8C14.8,27.8,14.8,27.7,14.8,27.8C14.8,27.8,14.8,27.8,14.8,27.8
			L14.8,27.8z"/>
		<path class="st3" d="M64.1,12.9c0.3,0.5,0.5,2.1,0.5,3.8c0,8.5-12.5,10.3-25.1,11.9v0c-8.6,1.1-17.2,2.6-22.1,7
			c-7.2,6.4-3.7,15.8-2.5,18c-0.3-0.5-0.5-2.1-0.5-3.8c0-8.5,12.5-10.3,25.1-11.9v0c8.6-1.1,17.2-2.6,22.1-7
			C68.9,24.4,65.3,15.1,64.1,12.9z"/>
		<path class="st4" d="M64,38.3c0.3,0.5,0.5,2.1,0.5,3.8c0,8.5-12.5,10.3-25.1,11.9v0c-8.6,1.1-17.2,2.6-22.1,7
			c-7.2,6.4-3.7,15.8-2.5,18c-0.3-0.5-0.5-2.1-0.5-3.8c0-8.5,12.5-10.3,25.1-11.9v0c8.6-1.1,17.2-2.6,22.1-7
			C68.8,49.9,65.2,40.5,64,38.3z"/>
		<path class="st4" d="M14.8,27.8c-0.3-0.5-0.5-2.1-0.5-3.8c0-8.5,12.5-10.3,25.1-11.9V2.8c-8.6,1.1-17.2,2.6-22.1,7
			C10,16.2,13.6,25.6,14.8,27.8L14.8,27.8z"/>
	</g>
</g>
</svg>
