<?xml version="1.0" encoding="utf-8"?>
<!-- Generator: Adobe Illustrator 22.1.0, SVG Export Plug-In . SVG Version: 6.00 Build 0)  -->
<svg version="1.1" id="Layer_1" xmlns="http://www.w3.org/2000/svg" xmlns:xlink="http://www.w3.org/1999/xlink" x="0px" y="0px"
	 viewBox="0 0 195 179" style="enable-background:new 0 0 195 179;" xml:space="preserve">
<style type="text/css">
	.st0{fill:none;stroke:#BCBA40;stroke-width:2;stroke-miterlimit:10;stroke-dasharray:1,3,1,3,1,3;}
	.st1{fill:none;stroke:#BCBA40;stroke-miterlimit:10;stroke-dasharray:1,3,1,3,1,3;}
	.st2{fill:#444444;stroke:#BCBA40;stroke-miterlimit:10;}
	.st3{fill:none;stroke:#BCBA40;stroke-miterlimit:10;}
	.st4{fill:#FFFFFF;stroke:#BCBA40;stroke-miterlimit:10;}
</style>
<title>interfaceIcons</title>
<g>
	<g>
		<ellipse class="st0" cx="100.7" cy="87.6" rx="32.3" ry="31.8"/>
		<line class="st0" x1="83.3" y1="104.6" x2="118.3" y2="68.8"/>
	</g>
	<g>
		<ellipse class="st1" cx="38.2" cy="92.2" rx="32.3" ry="31.8"/>
		<line class="st1" x1="20.9" y1="109.2" x2="55.8" y2="73.3"/>
	</g>
	<g>
		<ellipse class="st0" cx="156.7" cy="91.5" rx="32.3" ry="31.8"/>
		<line class="st0" x1="139.4" y1="108.5" x2="174.3" y2="72.7"/>
	</g>
	<g>
		<g>
			<g>
				<path class="st2" d="M86.5,108.9l1.9-0.3c0.5-0.1,1,0.3,1,1.1l0,0c0.1,0.7-0.3,1.3-0.8,1.4l-2.1,0.3"/>
				<line class="st3" x1="86.6" y1="111.4" x2="86.6" y2="111.4"/>
			</g>
			<path class="st2" d="M86.8,111.5l-2.6,0.4c-0.5,0.1-1-0.4-1-1.2l0,0c-0.1-0.8,0.3-1.5,0.8-1.6l2.8-0.4L86.8,111.5z"/>
			<path class="st4" d="M87.7,110.5c0,0,1.4-0.1,1.3-0.6"/>
		</g>
		<g>
			<g>
				<path class="st2" d="M95.1,108.9l-1.2-0.1c-0.3,0-0.6-0.3-0.5-0.8l0,0c0-0.4,0.3-0.8,0.6-0.8l1.3,0.1"/>
				<line class="st3" x1="95.2" y1="107.4" x2="95.2" y2="107.4"/>
			</g>
			<path class="st2" d="M95.1,107.3l1.7,0.1c0.3,0,0.6,0.3,0.5,0.9l0,0c0,0.4-0.3,0.9-0.6,0.9l-1.7-0.1L95.1,107.3z"/>
			<path class="st4" d="M94.4,107.8c0,0-0.9-0.1-0.9,0.2"/>
		</g>
		<g>
			<g>
				<path class="st2" d="M99.9,107.3l1.9,1.4c0.5,0.3,0.6,1,0.2,1.6l0,0c-0.3,0.5-1,0.6-1.6,0.2l-2-1.5"/>
				<line class="st3" x1="98.5" y1="108.9" x2="98.5" y2="108.9"/>
			</g>
			<path class="st2" d="M98.5,109.2l-2.6-1.9c-0.5-0.3-0.5-1.1-0.1-1.7l0,0c0.3-0.5,1.1-0.7,1.6-0.3l2.7,2.1L98.5,109.2z"/>
			<path class="st4" d="M100,109.3c0,0,1.2,1.1,1.6,0.7"/>
		</g>
		<g>
			<g>
				<path class="st4" d="M100.5,110.7l-2.4,0.1c-0.6,0-1.1-0.4-1.1-1.1l0,0c0-0.6,0.4-1.1,1.1-1.1l2.5-0.1"/>
				<line class="st3" x1="100.6" y1="108.5" x2="100.7" y2="108.5"/>
			</g>
			<path class="st4" d="M100.4,108.4l3.2-0.1c0.6,0,1.1,0.5,1.1,1.2l0,0c0,0.7-0.4,1.2-1.1,1.3l-3.4,0.1L100.4,108.4z"/>
			<path class="st4" d="M99.1,109.2c0,0-1.7-0.1-1.6,0.3"/>
		</g>
		<g>
			<g>
				<path class="st2" d="M105.4,120.7l-6.5-1.6c-1.6-0.3-2.6-2.1-2.3-3.7l0,0c0.3-1.6,2.1-2.6,3.7-2.3l6.8,1.6"/>
				<line class="st3" x1="107.1" y1="114.8" x2="107.2" y2="114.8"/>
			</g>
			<path class="st2" d="M106.7,114.3l8.7,2.1c1.6,0.3,2.6,2.3,2.2,4.1l0,0c-0.4,1.8-2.1,3.1-3.8,2.6l-9.2-2.2L106.7,114.3z"/>
			<path class="st4" d="M102.7,115.5c0,0-4.4-1.6-4.6-0.1"/>
		</g>
		<g>
			<g>
				<path class="st2" d="M98.5,111.1l-2.4,0.1c-0.6,0-1.1-0.4-1.1-1.1l0,0c0-0.6,0.4-1.1,1.1-1.1l2.5-0.1"/>
				<line class="st3" x1="98.6" y1="108.9" x2="98.6" y2="108.9"/>
			</g>
			<path class="st2" d="M98.5,108.8l3.2-0.1c0.6,0,1.1,0.5,1.1,1.2l0,0c0,0.7-0.4,1.2-1.1,1.3l-3.4,0.1L98.5,108.8z"/>
			<path class="st4" d="M97.2,109.6c0,0-1.7-0.1-1.6,0.3"/>
		</g>
		<g>
			<g>
				<path class="st2" d="M88.1,108.5l-2-0.1c-0.5,0-0.9-0.6-0.9-1.3l0,0c0-0.6,0.4-1.2,1-1.1l2.1,0.1"/>
				<line class="st3" x1="88.2" y1="106" x2="88.2" y2="106"/>
			</g>
			<path class="st2" d="M88.1,105.9l2.6,0.1c0.5,0,0.9,0.6,0.9,1.4l0,0c0,0.8-0.4,1.4-1,1.4l-2.8-0.1L88.1,105.9z"/>
			<path class="st4" d="M87,106.6c0,0-1.4-0.3-1.4,0.3"/>
		</g>
		<g>
			<g>
				<path class="st2" d="M91.8,108.7l-2.2,1c-0.6,0.3-1.2,0-1.5-0.5l0,0c-0.3-0.6,0-1.2,0.5-1.5l2.3-1"/>
				<line class="st3" x1="91" y1="106.6" x2="91.1" y2="106.6"/>
			</g>
			<path class="st2" d="M90.8,106.6l3-1.4c0.6-0.3,1.2,0.1,1.6,0.6l0,0c0.3,0.6,0.1,1.4-0.4,1.6l-3.1,1.4L90.8,106.6z"/>
			<path class="st4" d="M89.8,107.8c0,0-1.6,0.6-1.4,1"/>
		</g>
		<g>
			<g>
				<path class="st2" d="M91.3,109.3l2.1-0.8c0.5-0.2,1.2,0.3,1.5,1l0,0c0.3,0.8,0.1,1.5-0.5,1.7l-2.3,0.8"/>
				<line class="st3" x1="92.2" y1="112.1" x2="92.2" y2="112.1"/>
			</g>
			<path class="st2" d="M92.5,112.1l-2.9,1c-0.5,0.2-1.2-0.3-1.6-1.1l0,0c-0.3-0.9-0.1-1.7,0.4-1.8l3.1-1.1L92.5,112.1z"/>
			<path class="st4" d="M93.3,110.8c0,0,1.6-0.3,1.3-1"/>
		</g>
	</g>
</g>
</svg>
